<svg width="88" height="88" viewBox="0 0 88 88" fill="none" xmlns="http://www.w3.org/2000/svg">
<path d="M64.2768 28.4899C64.0201 28.4533 63.7635 28.4533 63.5068 28.4899C57.8235 28.3066 53.3135 23.6499 53.3135 17.9299C53.3135 12.0999 58.0435 7.33325 63.9101 7.33325C69.7401 7.33325 74.5068 12.0633 74.5068 17.9299C74.4701 23.6499 69.9601 28.3066 64.2768 28.4899Z" fill="#B96666"/>
<path d="M76.2295 53.9C72.1229 56.65 66.3662 57.6767 61.0495 56.98C62.4429 53.9733 63.1762 50.6367 63.2129 47.1167C63.2129 43.45 62.4062 39.9667 60.8662 36.9233C66.2929 36.19 72.0495 37.2167 76.1929 39.9667C81.9862 43.78 81.9862 50.05 76.2295 53.9Z" fill="#B96666"/>
<path d="M23.6133 28.4899C23.8699 28.4533 24.1266 28.4533 24.3833 28.4899C30.0666 28.3066 34.5766 23.6499 34.5766 17.9299C34.5766 12.0633 29.8466 7.33325 23.9799 7.33325C18.1499 7.33325 13.4199 12.0633 13.4199 17.9299C13.4199 23.6499 17.9299 28.3066 23.6133 28.4899Z" fill="#B96666"/>
<path d="M24.0171 47.1166C24.0171 50.6733 24.7871 54.0466 26.1804 57.09C21.0104 57.64 15.6204 56.54 11.6604 53.9366C5.8671 50.0866 5.8671 43.8166 11.6604 39.9666C15.5838 37.3266 21.1204 36.2633 26.3271 36.85C24.8238 39.93 24.0171 43.4133 24.0171 47.1166Z" fill="#B96666"/>
<path d="M44.4396 58.19C44.1463 58.1533 43.8163 58.1533 43.4863 58.19C36.7396 57.97 31.3496 52.4333 31.3496 45.6133C31.3863 38.6467 36.9963 33 43.9996 33C50.9663 33 56.6129 38.6467 56.6129 45.6133C56.5763 52.4333 51.2229 57.97 44.4396 58.19Z" fill="#B96666"/>
<path d="M32.5236 65.7799C26.9869 69.4833 26.9869 75.5699 32.5236 79.2366C38.8303 83.4533 49.1703 83.4533 55.4769 79.2366C61.0136 75.5333 61.0136 69.4466 55.4769 65.7799C49.2069 61.5633 38.8669 61.5633 32.5236 65.7799Z" fill="#B96666"/>
</svg>
