<svg width="88" height="88" viewBox="0 0 88 88" fill="none" xmlns="http://www.w3.org/2000/svg">
<path d="M33.0007 83.4166H25.6673C9.49732 83.4166 4.58398 78.5033 4.58398 62.3332V25.6666C4.58398 9.49659 9.49732 4.58325 25.6673 4.58325H31.1673C37.584 4.58325 39.6007 6.67325 42.1673 10.0833L47.6673 17.4166C48.8773 19.0299 49.0606 19.2499 51.334 19.2499H62.334C78.504 19.2499 83.4173 24.1633 83.4173 40.3333V47.6666C83.4173 49.1699 82.1706 50.4166 80.6673 50.4166C79.164 50.4166 77.9173 49.1699 77.9173 47.6666V40.3333C77.9173 27.2433 75.4606 24.7499 62.334 24.7499H51.334C46.6406 24.7499 45.1006 23.1366 43.2673 20.7166L37.7673 13.3832C35.8606 10.8532 35.274 10.0833 31.1673 10.0833H25.6673C12.5407 10.0833 10.084 12.5766 10.084 25.6666V62.3332C10.084 75.4232 12.5407 77.9166 25.6673 77.9166H33.0007C34.504 77.9166 35.7507 79.1632 35.7507 80.6666C35.7507 82.1699 34.504 83.4166 33.0007 83.4166Z" fill="#B96666"/>
<path d="M70.915 83.6366C70.8783 83.6366 70.8415 83.6366 70.8049 83.6366H50.4182C44.2949 83.1966 41.2148 78.5033 41.2148 74.0299C41.2148 70.4366 43.2315 66.66 47.1181 65.1199C46.3115 60.5366 47.485 56.2833 50.5283 53.0933C54.2683 49.17 60.2815 47.5933 65.4882 49.1699C70.0348 50.5633 73.2982 54.1566 74.6548 59.1433C78.5048 60.3166 81.5483 63.3599 82.7949 67.5033C84.2616 72.3066 82.9049 77.22 79.2749 80.3733C77.0749 82.4633 74.0683 83.6366 70.915 83.6366ZM50.5648 69.9233C47.7781 70.1799 46.7515 72.2699 46.7515 74.0299C46.7515 75.7899 47.7782 77.9166 50.6382 78.1366H70.8416C72.6016 78.2832 74.3616 77.4766 75.6816 76.3032C78.0649 74.2132 78.2115 71.2433 77.5881 69.1166C76.9648 66.9899 75.1316 64.6066 72.0516 64.2033C70.8416 64.0566 69.8882 63.14 69.6682 61.93C68.8615 56.98 66.0749 55.1466 63.9115 54.4499C60.6849 53.4599 56.8716 54.4865 54.5616 56.9065C52.9849 58.5565 51.4449 61.5266 53.1682 66.2566C53.6815 67.6866 52.9482 69.2632 51.5182 69.7766C51.1882 69.8866 50.8581 69.9233 50.5648 69.9233Z" fill="#B96666"/>
</svg>
