<svg width="88" height="88" viewBox="0 0 88 88" fill="none" xmlns="http://www.w3.org/2000/svg">
<path d="M44.0006 83.4166C22.2573 83.4166 4.58398 65.7432 4.58398 43.9999C4.58398 22.2566 22.2573 4.58325 44.0006 4.58325C65.744 4.58325 83.4173 22.2566 83.4173 43.9999C83.4173 65.7432 65.744 83.4166 44.0006 83.4166ZM44.0006 10.0833C25.3006 10.0833 10.084 25.2999 10.084 43.9999C10.084 62.6999 25.3006 77.9166 44.0006 77.9166C62.7006 77.9166 77.9173 62.6999 77.9173 43.9999C77.9173 25.2999 62.7006 10.0833 44.0006 10.0833Z" fill="#B96666"/>
<path d="M33.0009 79.75H29.3342C27.8309 79.75 26.5842 78.5033 26.5842 77C26.5842 75.4967 27.7575 74.2867 29.2609 74.25C23.5042 54.5967 23.5042 33.4033 29.2609 13.75C27.7575 13.7133 26.5842 12.5033 26.5842 11C26.5842 9.49667 27.8309 8.25 29.3342 8.25H33.0009C33.8809 8.25 34.7242 8.69 35.2375 9.38667C35.7509 10.12 35.8975 11.0367 35.6042 11.88C28.7109 32.5967 28.7109 55.4033 35.6042 76.1567C35.8975 77 35.7509 77.9167 35.2375 78.65C34.7242 79.31 33.8809 79.75 33.0009 79.75Z" fill="#B96666"/>
<path d="M55.0008 79.7501C54.7075 79.7501 54.4141 79.7134 54.1208 79.6034C52.6908 79.1268 51.8841 77.5501 52.3975 76.1201C59.2908 55.4034 59.2908 32.5968 52.3975 11.8434C51.9208 10.4134 52.6908 8.83676 54.1208 8.36009C55.5875 7.88342 57.1275 8.65342 57.6041 10.0834C64.9008 31.9368 64.9008 55.9901 57.6041 77.8068C57.2375 79.0168 56.1375 79.7501 55.0008 79.7501Z" fill="#B96666"/>
<path d="M44 63.0666C33.77 63.0666 23.5767 61.6366 13.75 58.7399C13.7133 60.2066 12.5033 61.4166 11 61.4166C9.49667 61.4166 8.25 60.1699 8.25 58.6666V54.9999C8.25 54.1199 8.69 53.2766 9.38667 52.7632C10.12 52.2499 11.0367 52.1032 11.88 52.3966C32.5967 59.2899 55.44 59.2899 76.1567 52.3966C77 52.1032 77.9167 52.2499 78.65 52.7632C79.3833 53.2766 79.7867 54.1199 79.7867 54.9999V58.6666C79.7867 60.1699 78.54 61.4166 77.0367 61.4166C75.5333 61.4166 74.3233 60.2432 74.2867 58.7399C64.4233 61.6366 54.23 63.0666 44 63.0666Z" fill="#B96666"/>
<path d="M76.9999 35.7499C76.7065 35.7499 76.4132 35.7132 76.1199 35.6032C55.4032 28.7099 32.5599 28.7099 11.8432 35.6032C10.3765 36.0799 8.83652 35.3099 8.35986 33.8799C7.91986 32.4132 8.68986 30.8732 10.1199 30.3966C31.9732 23.0999 56.0265 23.0999 77.8432 30.3966C79.2732 30.8732 80.0799 32.4499 79.5665 33.8799C79.2365 35.0166 78.1365 35.7499 76.9999 35.7499Z" fill="#B96666"/>
</svg>
