<svg width="508" height="451" viewBox="0 0 508 451" fill="none" xmlns="http://www.w3.org/2000/svg">
<rect x="67" y="103" width="336" height="268" rx="10" fill="url(#paint0_linear_87_451)"/>
<path d="M145.24 237V213.96H147.4L156.456 233.336L165.464 213.96H167.656V236.984H165.416V219.208L157.208 237H155.688L147.496 219.208V237H145.24ZM185.634 237V227.352L177.906 213.96H180.626L186.818 224.664L192.978 213.96H195.698L188.002 227.352V237H185.634ZM228.381 237.48C226.087 237.48 224.151 236.973 222.573 235.96C220.994 234.936 219.799 233.523 218.989 231.72C218.178 229.917 217.773 227.837 217.773 225.48C217.773 223.123 218.178 221.043 218.989 219.24C219.799 217.437 220.994 216.029 222.573 215.016C224.151 213.992 226.087 213.48 228.381 213.48C231.058 213.48 233.245 214.168 234.941 215.544C236.637 216.909 237.799 218.744 238.429 221.048L236.029 221.672C235.538 219.848 234.658 218.403 233.389 217.336C232.119 216.269 230.45 215.736 228.381 215.736C226.578 215.736 225.079 216.147 223.885 216.968C222.69 217.789 221.789 218.936 221.181 220.408C220.583 221.869 220.274 223.56 220.253 225.48C220.242 227.4 220.535 229.091 221.133 230.552C221.741 232.013 222.647 233.16 223.853 233.992C225.069 234.813 226.578 235.224 228.381 235.224C230.45 235.224 232.119 234.691 233.389 233.624C234.658 232.547 235.538 231.101 236.029 229.288L238.429 229.912C237.799 232.216 236.637 234.056 234.941 235.432C233.245 236.797 231.058 237.48 228.381 237.48ZM259.287 237.48C256.993 237.48 255.057 236.973 253.479 235.96C251.9 234.936 250.705 233.523 249.895 231.72C249.084 229.917 248.679 227.837 248.679 225.48C248.679 223.123 249.084 221.043 249.895 219.24C250.705 217.437 251.9 216.029 253.479 215.016C255.057 213.992 256.993 213.48 259.287 213.48C261.591 213.48 263.527 213.992 265.095 215.016C266.673 216.029 267.868 217.437 268.679 219.24C269.5 221.043 269.911 223.123 269.911 225.48C269.911 227.837 269.5 229.917 268.679 231.72C267.868 233.523 266.673 234.936 265.095 235.96C263.527 236.973 261.591 237.48 259.287 237.48ZM259.287 235.224C261.089 235.224 262.593 234.813 263.799 233.992C265.004 233.171 265.905 232.029 266.503 230.568C267.111 229.096 267.415 227.4 267.415 225.48C267.415 223.56 267.111 221.869 266.503 220.408C265.905 218.947 265.004 217.805 263.799 216.984C262.593 216.163 261.089 215.747 259.287 215.736C257.484 215.736 255.985 216.147 254.791 216.968C253.596 217.789 252.695 218.936 252.087 220.408C251.489 221.869 251.185 223.56 251.175 225.48C251.164 227.4 251.457 229.091 252.055 230.552C252.663 232.003 253.569 233.144 254.775 233.976C255.98 234.797 257.484 235.213 259.287 235.224ZM281.115 237V213.96H288.107C288.352 213.96 288.768 213.965 289.355 213.976C289.952 213.987 290.523 214.029 291.067 214.104C292.816 214.349 294.278 215 295.451 216.056C296.624 217.112 297.504 218.456 298.091 220.088C298.678 221.72 298.971 223.517 298.971 225.48C298.971 227.443 298.678 229.24 298.091 230.872C297.504 232.504 296.624 233.848 295.451 234.904C294.278 235.96 292.816 236.611 291.067 236.856C290.534 236.92 289.963 236.963 289.355 236.984C288.747 236.995 288.331 237 288.107 237H281.115ZM283.547 234.744H288.107C288.544 234.744 289.014 234.733 289.515 234.712C290.027 234.68 290.464 234.627 290.827 234.552C292.171 234.317 293.254 233.773 294.075 232.92C294.907 232.067 295.515 231 295.899 229.72C296.283 228.429 296.475 227.016 296.475 225.48C296.475 223.933 296.283 222.515 295.899 221.224C295.515 219.933 294.907 218.867 294.075 218.024C293.243 217.181 292.16 216.643 290.827 216.408C290.464 216.333 290.022 216.285 289.499 216.264C288.987 216.232 288.523 216.216 288.107 216.216H283.547V234.744ZM310.615 237V213.96H325.015V216.216H312.967V224.184H323.095V226.44H312.967V234.744H325.015V237H310.615Z" fill="white"/>
<rect y="269" width="210" height="182" rx="10" fill="url(#paint1_linear_87_451)"/>
<path d="M37.68 369V351.72H39.3L46.092 366.252L52.848 351.72H54.492V368.988H52.812V355.656L46.656 369H45.516L39.372 355.656V369H37.68ZM67.9757 369V361.764L62.1797 351.72H64.2197L68.8637 359.748L73.4837 351.72H75.5237L69.7517 361.764V369H67.9757ZM100.035 369.36C98.3154 369.36 96.8634 368.98 95.6794 368.22C94.4954 367.452 93.5994 366.392 92.9914 365.04C92.3834 363.688 92.0794 362.128 92.0794 360.36C92.0794 358.592 92.3834 357.032 92.9914 355.68C93.5994 354.328 94.4954 353.272 95.6794 352.512C96.8634 351.744 98.3154 351.36 100.035 351.36C102.043 351.36 103.683 351.876 104.955 352.908C106.227 353.932 107.099 355.308 107.571 357.036L105.771 357.504C105.403 356.136 104.743 355.052 103.791 354.252C102.839 353.452 101.587 353.052 100.035 353.052C98.6834 353.052 97.5594 353.36 96.6634 353.976C95.7674 354.592 95.0914 355.452 94.6354 356.556C94.1874 357.652 93.9554 358.92 93.9394 360.36C93.9314 361.8 94.1514 363.068 94.5994 364.164C95.0554 365.26 95.7354 366.12 96.6394 366.744C97.5514 367.36 98.6834 367.668 100.035 367.668C101.587 367.668 102.839 367.268 103.791 366.468C104.743 365.66 105.403 364.576 105.771 363.216L107.571 363.684C107.099 365.412 106.227 366.792 104.955 367.824C103.683 368.848 102.043 369.36 100.035 369.36ZM123.215 369.36C121.495 369.36 120.043 368.98 118.859 368.22C117.675 367.452 116.779 366.392 116.171 365.04C115.563 363.688 115.259 362.128 115.259 360.36C115.259 358.592 115.563 357.032 116.171 355.68C116.779 354.328 117.675 353.272 118.859 352.512C120.043 351.744 121.495 351.36 123.215 351.36C124.943 351.36 126.395 351.744 127.571 352.512C128.755 353.272 129.651 354.328 130.259 355.68C130.875 357.032 131.183 358.592 131.183 360.36C131.183 362.128 130.875 363.688 130.259 365.04C129.651 366.392 128.755 367.452 127.571 368.22C126.395 368.98 124.943 369.36 123.215 369.36ZM123.215 367.668C124.567 367.668 125.695 367.36 126.599 366.744C127.503 366.128 128.179 365.272 128.627 364.176C129.083 363.072 129.311 361.8 129.311 360.36C129.311 358.92 129.083 357.652 128.627 356.556C128.179 355.46 127.503 354.604 126.599 353.988C125.695 353.372 124.567 353.06 123.215 353.052C121.863 353.052 120.739 353.36 119.843 353.976C118.947 354.592 118.271 355.452 117.815 356.556C117.367 357.652 117.139 358.92 117.131 360.36C117.123 361.8 117.343 363.068 117.791 364.164C118.247 365.252 118.927 366.108 119.831 366.732C120.735 367.348 121.863 367.66 123.215 367.668ZM139.586 369V351.72H144.83C145.014 351.72 145.326 351.724 145.766 351.732C146.214 351.74 146.642 351.772 147.05 351.828C148.362 352.012 149.458 352.5 150.338 353.292C151.218 354.084 151.878 355.092 152.318 356.316C152.758 357.54 152.978 358.888 152.978 360.36C152.978 361.832 152.758 363.18 152.318 364.404C151.878 365.628 151.218 366.636 150.338 367.428C149.458 368.22 148.362 368.708 147.05 368.892C146.65 368.94 146.222 368.972 145.766 368.988C145.31 368.996 144.998 369 144.83 369H139.586ZM141.41 367.308H144.83C145.158 367.308 145.51 367.3 145.886 367.284C146.27 367.26 146.598 367.22 146.87 367.164C147.878 366.988 148.69 366.58 149.306 365.94C149.93 365.3 150.386 364.5 150.674 363.54C150.962 362.572 151.106 361.512 151.106 360.36C151.106 359.2 150.962 358.136 150.674 357.168C150.386 356.2 149.93 355.4 149.306 354.768C148.682 354.136 147.87 353.732 146.87 353.556C146.598 353.5 146.266 353.464 145.874 353.448C145.49 353.424 145.142 353.412 144.83 353.412H141.41V367.308ZM161.711 369V351.72H172.511V353.412H163.475V359.388H171.071V361.08H163.475V367.308H172.511V369H161.711Z" fill="white"/>
<rect x="298" width="210" height="182" rx="10" fill="url(#paint2_linear_87_451)"/>
<path d="M335.68 108V90.72H337.3L344.092 105.252L350.848 90.72H352.492V107.988H350.812V94.656L344.656 108H343.516L337.372 94.656V108H335.68ZM365.976 108V100.764L360.18 90.72H362.22L366.864 98.748L371.484 90.72H373.524L367.752 100.764V108H365.976ZM398.035 108.36C396.315 108.36 394.863 107.98 393.679 107.22C392.495 106.452 391.599 105.392 390.991 104.04C390.383 102.688 390.079 101.128 390.079 99.36C390.079 97.592 390.383 96.032 390.991 94.68C391.599 93.328 392.495 92.272 393.679 91.512C394.863 90.744 396.315 90.36 398.035 90.36C400.043 90.36 401.683 90.876 402.955 91.908C404.227 92.932 405.099 94.308 405.571 96.036L403.771 96.504C403.403 95.136 402.743 94.052 401.791 93.252C400.839 92.452 399.587 92.052 398.035 92.052C396.683 92.052 395.559 92.36 394.663 92.976C393.767 93.592 393.091 94.452 392.635 95.556C392.187 96.652 391.955 97.92 391.939 99.36C391.931 100.8 392.151 102.068 392.599 103.164C393.055 104.26 393.735 105.12 394.639 105.744C395.551 106.36 396.683 106.668 398.035 106.668C399.587 106.668 400.839 106.268 401.791 105.468C402.743 104.66 403.403 103.576 403.771 102.216L405.571 102.684C405.099 104.412 404.227 105.792 402.955 106.824C401.683 107.848 400.043 108.36 398.035 108.36ZM421.215 108.36C419.495 108.36 418.043 107.98 416.859 107.22C415.675 106.452 414.779 105.392 414.171 104.04C413.563 102.688 413.259 101.128 413.259 99.36C413.259 97.592 413.563 96.032 414.171 94.68C414.779 93.328 415.675 92.272 416.859 91.512C418.043 90.744 419.495 90.36 421.215 90.36C422.943 90.36 424.395 90.744 425.571 91.512C426.755 92.272 427.651 93.328 428.259 94.68C428.875 96.032 429.183 97.592 429.183 99.36C429.183 101.128 428.875 102.688 428.259 104.04C427.651 105.392 426.755 106.452 425.571 107.22C424.395 107.98 422.943 108.36 421.215 108.36ZM421.215 106.668C422.567 106.668 423.695 106.36 424.599 105.744C425.503 105.128 426.179 104.272 426.627 103.176C427.083 102.072 427.311 100.8 427.311 99.36C427.311 97.92 427.083 96.652 426.627 95.556C426.179 94.46 425.503 93.604 424.599 92.988C423.695 92.372 422.567 92.06 421.215 92.052C419.863 92.052 418.739 92.36 417.843 92.976C416.947 93.592 416.271 94.452 415.815 95.556C415.367 96.652 415.139 97.92 415.131 99.36C415.123 100.8 415.343 102.068 415.791 103.164C416.247 104.252 416.927 105.108 417.831 105.732C418.735 106.348 419.863 106.66 421.215 106.668ZM437.586 108V90.72H442.83C443.014 90.72 443.326 90.724 443.766 90.732C444.214 90.74 444.642 90.772 445.05 90.828C446.362 91.012 447.458 91.5 448.338 92.292C449.218 93.084 449.878 94.092 450.318 95.316C450.758 96.54 450.978 97.888 450.978 99.36C450.978 100.832 450.758 102.18 450.318 103.404C449.878 104.628 449.218 105.636 448.338 106.428C447.458 107.22 446.362 107.708 445.05 107.892C444.65 107.94 444.222 107.972 443.766 107.988C443.31 107.996 442.998 108 442.83 108H437.586ZM439.41 106.308H442.83C443.158 106.308 443.51 106.3 443.886 106.284C444.27 106.26 444.598 106.22 444.87 106.164C445.878 105.988 446.69 105.58 447.306 104.94C447.93 104.3 448.386 103.5 448.674 102.54C448.962 101.572 449.106 100.512 449.106 99.36C449.106 98.2 448.962 97.136 448.674 96.168C448.386 95.2 447.93 94.4 447.306 93.768C446.682 93.136 445.87 92.732 444.87 92.556C444.598 92.5 444.266 92.464 443.874 92.448C443.49 92.424 443.142 92.412 442.83 92.412H439.41V106.308ZM459.711 108V90.72H470.511V92.412H461.475V98.388H469.071V100.08H461.475V106.308H470.511V108H459.711Z" fill="white"/>
<defs>
<linearGradient id="paint0_linear_87_451" x1="235" y1="103" x2="235" y2="371" gradientUnits="userSpaceOnUse">
<stop offset="0.107292" stop-color="#1C2050"/>
<stop offset="0.805208" stop-color="#090C2F"/>
</linearGradient>
<linearGradient id="paint1_linear_87_451" x1="105" y1="269" x2="105" y2="451" gradientUnits="userSpaceOnUse">
<stop stop-color="#1C2050"/>
<stop offset="1" stop-color="#090C2F"/>
</linearGradient>
<linearGradient id="paint2_linear_87_451" x1="403" y1="0" x2="403" y2="182" gradientUnits="userSpaceOnUse">
<stop offset="0.258333" stop-color="#1C2050"/>
<stop offset="0.9875" stop-color="#090C2F"/>
</linearGradient>
</defs>
</svg>
