<svg width="22" height="23" viewBox="0 0 22 23" fill="none" xmlns="http://www.w3.org/2000/svg">
<path d="M21.6025 9.00395C21.5608 8.77333 21.4395 8.56467 21.2597 8.41438C21.0799 8.2641 20.853 8.18174 20.6186 8.18168H11.2002C11.0689 8.18165 10.9388 8.20749 10.8175 8.25774C10.6962 8.30798 10.5859 8.38164 10.493 8.4745C10.4002 8.56737 10.3265 8.67762 10.2763 8.79896C10.226 8.9203 10.2002 9.05035 10.2002 9.18168V13.0498C10.2002 13.1812 10.226 13.3112 10.2763 13.4326C10.3265 13.5539 10.4002 13.6642 10.493 13.757C10.5859 13.8499 10.6962 13.9236 10.8175 13.9738C10.9388 14.024 11.0689 14.0499 11.2002 14.0498H15.1626C14.8803 14.5264 14.4932 14.9325 14.0308 15.2373C13.1856 15.7732 12.2006 16.0464 11.2002 16.0225C10.1627 16.0106 9.1553 15.6721 8.3212 15.0549C7.4871 14.4378 6.86873 13.5734 6.55398 12.5847L6.55369 12.583C6.20342 11.5564 6.20342 10.4427 6.55369 9.41605L6.55393 9.41439C6.86891 8.4259 7.48736 7.56179 8.32145 6.94483C9.15553 6.32787 10.1628 5.98943 11.2002 5.97758C11.7766 5.96435 12.35 6.06512 12.8873 6.2741C13.4247 6.48309 13.9155 6.79616 14.3315 7.19535C14.5205 7.37591 14.7726 7.47537 15.0339 7.47245C15.2953 7.46953 15.5451 7.36447 15.73 7.17974L18.5981 4.31156C18.6931 4.21667 18.7681 4.10359 18.8184 3.97908C18.8687 3.85458 18.8935 3.72121 18.8911 3.58693C18.8887 3.45266 18.8593 3.32024 18.8046 3.19759C18.7499 3.07494 18.671 2.96458 18.5727 2.87309C16.5769 1.0018 13.936 -0.0273445 11.2002 4.4708e-05C9.16015 -0.0059912 7.15897 0.558057 5.42235 1.62858C3.68572 2.69911 2.28272 4.23353 1.37156 6.05883L1.37009 6.0606C0.597614 7.59235 0.196834 9.28453 0.200217 11C0.20265 12.7149 0.603135 14.4057 1.37014 15.9395L1.37161 15.9413C2.28276 17.7665 3.68576 19.301 5.42237 20.3715C7.15899 21.442 9.16016 22.0061 11.2002 22C13.8856 22.068 16.4953 21.1067 18.4949 19.313L18.4956 19.3126L18.4964 19.3117L18.4966 19.3116L18.4967 19.3115C19.5805 18.2688 20.4343 17.011 21.0032 15.6188C21.5722 14.2267 21.8437 12.7309 21.8003 11.2276C21.8008 10.482 21.7346 9.7378 21.6025 9.00395ZM11.2002 2.00004C13.0713 1.98183 14.8982 2.56859 16.4087 3.67289L14.955 5.12604C13.8528 4.3631 12.5406 3.96175 11.2002 3.97758C9.97644 3.98388 8.77645 4.31617 7.72375 4.94027C6.67105 5.56437 5.80368 6.45771 5.21091 7.52837L4.1417 6.69963L3.5567 6.24595C4.36147 4.9438 5.48668 3.86975 6.82486 3.1264C8.16303 2.38306 9.66945 1.99526 11.2002 2.00004ZM2.67966 13.9034C2.04034 12.0206 2.04034 9.97948 2.67966 8.09672L4.46189 9.47857C4.23402 10.4798 4.23402 11.5194 4.46189 12.5206L2.67966 13.9034ZM11.2002 20C9.66943 20.0048 8.16298 19.617 6.8248 18.8736C5.48661 18.1302 4.36139 17.0561 3.55662 15.754L3.93503 15.4604L5.21091 14.4707C5.80341 15.5417 6.6707 16.4353 7.72344 17.0596C8.77618 17.6839 9.97631 18.0163 11.2002 18.0225C12.3459 18.036 13.4785 17.7787 14.5059 17.2717L16.1976 18.585C14.7098 19.5437 12.9697 20.0364 11.2002 20ZM17.7261 17.2393L17.5431 17.0973L16.1657 16.028C16.8879 15.2478 17.3734 14.2782 17.5654 13.2325C17.5923 13.0882 17.587 12.9397 17.55 12.7976C17.5129 12.6555 17.4451 12.5233 17.3512 12.4105C17.2573 12.2976 17.1397 12.2067 17.0068 12.1444C16.8739 12.0821 16.7288 12.0498 16.582 12.0499H12.2002V10.1817H19.749C19.7832 10.5274 19.8003 10.877 19.8003 11.2276C19.8588 13.4164 19.1218 15.5522 17.726 17.2393H17.7261Z" fill="#FBFBFB"/>
</svg>
